# 3ds Max Wavefront OBJ Exporter v0.97b - (c)2007 guruware
# File Created: 16.10.2018 11:25:23

#
# object box
#

v  -10.0000 0.0000 10.0000
v  -10.0000 0.0000 -10.0000
v  10.0000 0.0000 -10.0000
v  10.0000 0.0000 10.0000
v  -10.0000 20.0000 10.0000
v  10.0000 20.0000 10.0000
v  10.0000 20.0000 -10.0000
v  -10.0000 20.0000 -10.0000
# 8 vertices

vn -0.5774 -0.5774 0.5774
vn -0.5774 -0.5774 -0.5774
vn 0.5774 -0.5774 -0.5774
vn 0.5774 -0.5774 0.5774
vn -0.5774 0.5774 0.5774
vn 0.5774 0.5774 0.5774
vn 0.5774 0.5774 -0.5774
vn -0.5774 0.5774 -0.5774
# 8 vertex normals

vt 0.3468 0.3264 0.0000
vt 0.3468 0.0200 0.0000
vt 0.6532 0.0200 0.0000
vt 0.6532 0.3264 0.0000
vt 0.0357 0.3468 0.0000
vt 0.3422 0.3468 0.0000
vt 0.3422 0.6532 0.0000
vt 0.0357 0.6532 0.0000
vt 0.0200 0.0200 0.0000
vt 0.3264 0.0200 0.0000
vt 0.3264 0.3264 0.0000
vt 0.0200 0.3264 0.0000
vt 0.0357 0.6736 0.0000
vt 0.3422 0.6736 0.0000
vt 0.3422 0.9800 0.0000
vt 0.0357 0.9800 0.0000
vt 0.6736 0.0200 0.0000
vt 0.9800 0.0200 0.0000
vt 0.9800 0.3264 0.0000
vt 0.6736 0.3264 0.0000
vt 0.3625 0.3586 0.0000
vt 0.6690 0.3586 0.0000
vt 0.6690 0.6650 0.0000
vt 0.3625 0.6650 0.0000
# 24 texture coords

o box
g box
s off
f 1/1/1 2/2/2 3/3/3 4/4/4 
f 5/5/5 6/6/6 7/7/7 8/8/8 
f 1/9/1 4/10/4 6/11/6 5/12/5 
f 4/13/4 3/14/3 7/15/7 6/16/6 
f 3/17/3 2/18/2 8/19/8 7/20/7 
f 2/21/2 1/22/1 5/23/5 8/24/8 
# 6 polygons

